<svg width="24" height="24" viewBox="0 0 24 24" fill="none" xmlns="http://www.w3.org/2000/svg">
<g clip-path="url(#clip0_114_15)">
<path d="M21.6498 9.36217C21.3805 9.19553 21.0358 9.21264 20.7836 9.40572L16.5036 12.6827L12.6106 7.51427C12.4684 7.32597 12.2475 7.21361 12.0116 7.21005C11.7805 7.20649 11.5515 7.31195 11.4037 7.49617L7.24773 12.6794L3.23322 9.41927C2.98403 9.21672 2.63477 9.1915 2.35909 9.35631C2.0837 9.52117 1.9405 9.84062 2.00064 10.156L3.32547 17.086C3.39452 17.4465 3.70966 17.7069 4.07631 17.7069H19.9234C20.2903 17.7069 20.6055 17.4465 20.674 17.086L21.9988 10.156C22.0585 9.8447 21.9197 9.52881 21.6498 9.36217ZM19.2917 16.1782H4.70847L3.89547 11.9265L6.88122 14.3512C7.03919 14.4794 7.24197 14.5382 7.44428 14.5179C7.64659 14.4962 7.83203 14.3948 7.95944 14.2361L11.9811 9.21976L15.7465 14.2177C15.869 14.3805 16.0514 14.4878 16.2535 14.5153C16.4562 14.5433 16.6596 14.4885 16.8216 14.3647L20.1215 11.8381L19.2917 16.1782Z" fill="#FF6989"/>
<path d="M19.1593 16.9424V18.9041H4.84082V16.9424H3.31213V19.6685C3.31213 20.0906 3.65427 20.4328 4.07648 20.4328H19.9236C20.3458 20.4328 20.6879 20.0907 20.6879 19.6685V16.9424H19.1593Z" fill="#FF6989"/>
<path d="M12 3.56738C10.5952 3.56738 9.45227 4.71034 9.45227 6.11513C9.45227 7.51998 10.5952 8.66288 12 8.66288C13.4049 8.66288 14.5478 7.51993 14.5478 6.11513C14.5478 4.71034 13.4049 3.56738 12 3.56738ZM12 7.13429C11.438 7.13429 10.9809 6.67721 10.9809 6.11518C10.9809 5.55315 11.438 5.09607 12 5.09607C12.5621 5.09607 13.0191 5.55315 13.0191 6.11518C13.0191 6.67721 12.5621 7.13429 12 7.13429Z" fill="#FF6989"/>
<path d="M21.4523 5.5791C20.0475 5.5791 18.9045 6.72201 18.9045 8.12685C18.9045 9.5317 20.0475 10.6746 21.4523 10.6746C22.8572 10.6746 24.0001 9.53165 24.0001 8.12685C24.0001 6.72201 22.8571 5.5791 21.4523 5.5791ZM21.4523 9.14596C20.8903 9.14596 20.4332 8.68888 20.4332 8.12685C20.4332 7.56482 20.8903 7.10774 21.4523 7.10774C22.0143 7.10774 22.4714 7.56482 22.4714 8.12685C22.4714 8.68888 22.0143 9.14596 21.4523 9.14596Z" fill="#FF6989"/>
<path d="M2.54775 5.5791C1.14295 5.5791 0 6.72201 0 8.12685C0 9.5317 1.14295 10.6746 2.54775 10.6746C3.95259 10.6746 5.0955 9.53165 5.0955 8.12685C5.09555 6.72201 3.95259 5.5791 2.54775 5.5791ZM2.54775 9.14596C1.98572 9.14596 1.52864 8.68888 1.52864 8.12685C1.52864 7.56482 1.98572 7.10774 2.54775 7.10774C3.10978 7.10774 3.56686 7.56482 3.56686 8.12685C3.56686 8.68888 3.10983 9.14596 2.54775 9.14596Z" fill="#FF6989"/>
</g>
<defs>
<clipPath id="clip0_114_15">
<rect width="24" height="24" fill="white"/>
</clipPath>
</defs>
</svg>
