<svg width="270" height="45" viewBox="0 0 270 45" fill="none" xmlns="http://www.w3.org/2000/svg">
<path d="M33.3674 13.0059C33.1925 14.3948 32.726 15.6866 32.0263 16.8279C32.0263 16.8279 32.0263 16.8327 32.0214 16.8327C31.9048 17.0222 31.7785 17.2116 31.6522 17.3912C31.6473 17.3961 31.6473 17.3961 31.6424 17.401C29.6308 19.9846 25.4714 19.5815 23.9456 16.5122C22.1283 12.8553 18.6492 10.1697 14.4947 9.44607C13.761 9.31494 13.0078 9.25181 12.2352 9.25181C11.8708 9.25181 11.5112 9.26638 11.1517 9.29552C7.51222 9.59176 4.2955 11.3838 2.11377 14.05C2.1818 13.9432 2.24982 13.8412 2.31785 13.7392C2.35186 13.6858 2.38588 13.6372 2.42475 13.5838C2.45391 13.5401 2.48306 13.5012 2.51221 13.4575C2.53165 13.4284 2.55595 13.3992 2.57538 13.3701C2.6094 13.3167 2.64827 13.2681 2.68714 13.2195C2.87665 12.967 3.07101 12.7242 3.27995 12.4862C3.31882 12.4425 3.35284 12.3988 3.39171 12.3599C3.49861 12.2385 3.61037 12.1171 3.72213 12.0006C3.76586 11.9569 3.80959 11.9132 3.85332 11.8646C3.89705 11.8209 3.94079 11.7772 3.98452 11.7335C4.07198 11.646 4.1643 11.5586 4.25663 11.4761C4.30036 11.4324 4.34895 11.3935 4.39268 11.3498C4.43641 11.3061 4.485 11.2672 4.53359 11.2235C4.57733 11.1847 4.62592 11.141 4.67451 11.1021C4.7231 11.0633 4.77169 11.0196 4.82028 10.9807C4.86887 10.9419 4.91746 10.8981 4.96605 10.8642C5.01464 10.8253 5.06324 10.7864 5.11183 10.7476C5.16042 10.7087 5.20901 10.6699 5.26246 10.631C5.31105 10.5922 5.3645 10.5533 5.41309 10.5193C5.51513 10.4465 5.61717 10.3737 5.71921 10.3008C5.77266 10.2668 5.82125 10.228 5.8747 10.194C5.92815 10.16 5.97674 10.1211 6.03019 10.092C6.13709 10.024 6.24399 9.95599 6.35089 9.89286C6.40434 9.85887 6.45779 9.82973 6.51124 9.79573C6.56469 9.76174 6.61814 9.7326 6.67159 9.70346C6.72504 9.66946 6.77849 9.64032 6.8368 9.61119C6.89025 9.58205 6.94856 9.54805 7.00201 9.52377C7.11377 9.46549 7.22553 9.40721 7.33729 9.34894C7.45391 9.29066 7.57052 9.23724 7.68714 9.17896C7.74059 9.15468 7.7989 9.1304 7.85235 9.10611C7.91066 9.08183 7.96897 9.05269 8.02728 9.02841C8.08559 9.00413 8.1439 8.97985 8.2022 8.95556C8.3091 8.91185 8.41601 8.86815 8.5229 8.82929C8.82903 8.71274 9.14487 8.6059 9.46557 8.51362C9.52874 8.4942 9.58704 8.47963 9.65021 8.4602C9.83486 8.40678 10.0244 8.35822 10.2139 8.31451C10.277 8.29994 10.3402 8.28537 10.4034 8.2708C10.7824 8.18824 11.1711 8.12025 11.5647 8.07169C11.7591 8.0474 11.9583 8.02798 12.1575 8.00855C12.5171 7.97941 12.8815 7.96484 13.2459 7.96484C13.8242 7.96484 14.3927 7.99884 14.9466 8.07169C19.383 8.63504 23.1196 11.3838 25.0341 15.1864C25.0535 15.2301 25.0778 15.269 25.1021 15.3127C25.107 15.3272 25.1167 15.3418 25.1215 15.3515C25.175 15.4438 25.2284 15.5361 25.2819 15.6186C27.2498 18.6685 32.0214 17.9497 33.0564 14.3657C33.1925 13.9237 33.2945 13.4672 33.3674 13.0059Z" fill="url(#paint0_linear_116_4)"/>
<path d="M33.5035 11.2524C33.5035 11.8498 33.4598 12.4325 33.3675 13.0056C33.2946 13.4718 33.1925 13.9283 33.0662 14.3703C32.0361 17.9543 27.2596 18.6731 25.2917 15.6232C25.2382 15.5358 25.1848 15.4484 25.1313 15.3561C25.1216 15.3416 25.1167 15.327 25.1119 15.3173C25.0876 15.2736 25.0681 15.2347 25.0438 15.191C23.1342 11.3884 19.3927 8.63965 14.9564 8.0763C14.4024 8.00345 13.8339 7.96946 13.2557 7.96946C12.8864 7.96946 12.5268 7.98403 12.1673 8.01317C11.968 8.02774 11.7737 8.04716 11.5745 8.0763C11.1809 8.12486 10.797 8.19286 10.4131 8.27542C10.35 8.28998 10.2868 8.30455 10.2236 8.31912C10.0341 8.36283 9.84948 8.4114 9.65998 8.46482C9.59681 8.48424 9.5385 8.49881 9.47534 8.51824C9.15464 8.61051 8.83879 8.71735 8.53267 8.83391C8.42577 8.87276 8.31887 8.91647 8.21197 8.96018C8.15366 8.98446 8.09536 9.00874 8.03705 9.03302C7.97874 9.05731 7.92043 9.08159 7.86212 9.11073C7.80867 9.13501 7.75036 9.15929 7.69691 9.18357C7.58029 9.23699 7.46367 9.29527 7.34706 9.35355C7.2353 9.40697 7.12354 9.46525 7.01178 9.52838C6.95833 9.55752 6.90002 9.58666 6.84657 9.6158C6.79312 9.64494 6.73481 9.67893 6.68136 9.70807C6.62791 9.73721 6.57446 9.77121 6.52101 9.80035C6.46756 9.82948 6.41411 9.86348 6.36066 9.89747C6.25376 9.96061 6.14686 10.0286 6.03996 10.0966C5.98651 10.1306 5.93306 10.1646 5.88447 10.1986C5.83102 10.2326 5.78243 10.2666 5.72898 10.3054C5.62694 10.3783 5.5249 10.4463 5.42286 10.524C5.37427 10.558 5.32082 10.5968 5.27223 10.6357C5.22363 10.6745 5.17504 10.7085 5.12159 10.7522C5.073 10.7911 5.02441 10.8299 4.97582 10.8688C4.92723 10.9076 4.87864 10.9465 4.83005 10.9853C4.78146 11.0242 4.73287 11.0679 4.68428 11.1067C4.63569 11.1456 4.59195 11.1893 4.54336 11.2281C4.49477 11.267 4.45104 11.3107 4.40245 11.3544C4.35386 11.3981 4.31013 11.437 4.26639 11.4807C4.17407 11.5632 4.08661 11.6507 3.99429 11.7381C3.95055 11.7818 3.90682 11.8255 3.86309 11.8692C3.81936 11.9129 3.77563 11.9566 3.73189 12.0052C3.62014 12.112 3.50838 12.2334 3.40148 12.3548C3.3626 12.3986 3.32373 12.4423 3.28972 12.4811C3.08078 12.7191 2.88641 12.9619 2.69691 13.2144C2.65804 13.263 2.61916 13.3164 2.58515 13.365C2.56086 13.3941 2.54142 13.4233 2.52198 13.4524C2.48797 13.4961 2.45881 13.5398 2.42966 13.5787C2.39565 13.6321 2.35677 13.6807 2.32276 13.7341C2.24987 13.8361 2.18671 13.9381 2.11868 14.0449C2.09438 14.0789 2.07495 14.1129 2.05065 14.1469C2.04579 14.1469 2.04579 14.1469 2.04579 14.142C2.04579 14.142 2.04579 14.142 2.04093 14.142C1.69108 14.5791 1.37038 15.0356 1.07397 15.5164C1.93403 12.8891 3.26056 10.4705 4.96124 8.36769C8.93112 3.46266 14.9175 0.252536 21.6619 0.0145694C21.6765 0.0145694 21.6862 0.0145694 21.7008 0.0145694C21.9146 0.00485646 22.1284 0 22.3422 0C28.5132 0.0534211 33.5035 5.07015 33.5035 11.2524Z" fill="url(#paint1_linear_116_4)"/>
<path d="M13.0127 11.6357C14.4024 11.8106 15.6949 12.2768 16.8368 12.9761C16.8368 12.9761 16.8417 12.9761 16.8417 12.981C17.0312 13.0975 17.2207 13.2238 17.4005 13.3501C17.4053 13.3549 17.4053 13.3549 17.4102 13.3598C19.9952 15.3704 19.5919 19.5275 16.521 21.0524C12.8621 22.8687 10.175 26.346 9.45102 30.4982C9.31982 31.2316 9.25665 31.9843 9.25665 32.7565C9.25665 33.1207 9.27123 33.4801 9.30038 33.8395C9.59679 37.477 11.3898 40.692 14.0574 42.8725C13.9505 42.8045 13.8485 42.7365 13.7464 42.6686C13.693 42.6346 13.6444 42.6006 13.591 42.5617C13.5472 42.5326 13.5084 42.5034 13.4646 42.4743C13.4355 42.4549 13.4063 42.4306 13.3772 42.4112C13.3237 42.3772 13.2751 42.3383 13.2265 42.2995C12.9739 42.1101 12.7309 41.9158 12.4928 41.707C12.4491 41.6681 12.4053 41.6341 12.3665 41.5953C12.245 41.4884 12.1235 41.3767 12.0069 41.265C11.9632 41.2213 11.9194 41.1776 11.8708 41.1339C11.8271 41.0902 11.7834 41.0465 11.7396 41.0028C11.6522 40.9154 11.5647 40.8231 11.4821 40.7308C11.4384 40.6871 11.3995 40.6385 11.3558 40.5948C11.312 40.5511 11.2732 40.5026 11.2294 40.454C11.1906 40.4103 11.1468 40.3617 11.108 40.3132C11.0691 40.2646 11.0254 40.216 10.9865 40.1675C10.9476 40.1189 10.9039 40.0703 10.8699 40.0218C10.831 39.9732 10.7921 39.9246 10.7533 39.8761C10.7144 39.8275 10.6755 39.779 10.6366 39.7255C10.5978 39.677 10.5589 39.6235 10.5249 39.575C10.452 39.473 10.3791 39.371 10.3062 39.269C10.2722 39.2156 10.2333 39.167 10.1993 39.1136C10.1653 39.0602 10.1264 39.0116 10.0973 38.9582C10.0292 38.8514 9.96122 38.7445 9.89805 38.6377C9.86404 38.5843 9.83488 38.5308 9.80087 38.4774C9.76686 38.424 9.7377 38.3706 9.70855 38.3172C9.67453 38.2637 9.64538 38.2103 9.61623 38.152C9.58707 38.0986 9.55306 38.0403 9.52876 37.9869C9.47045 37.8752 9.41214 37.7635 9.35383 37.6518C9.29552 37.5353 9.24207 37.4187 9.18377 37.3022C9.15947 37.2487 9.13517 37.1905 9.11088 37.137C9.08658 37.0788 9.05743 37.0205 9.03313 36.9622C9.00884 36.9039 8.98454 36.8456 8.96025 36.7874C8.91652 36.6805 8.87278 36.5737 8.83391 36.4668C8.71729 36.1609 8.61039 35.8452 8.51807 35.5247C8.49864 35.4616 8.48406 35.4033 8.46462 35.3401C8.41117 35.1556 8.36258 34.9662 8.31885 34.7768C8.30427 34.7137 8.28969 34.6505 8.27512 34.5874C8.19251 34.2086 8.12449 33.8201 8.07589 33.4267C8.0516 33.2324 8.03216 33.0333 8.01273 32.8342C7.98357 32.4748 7.96899 32.1106 7.96899 31.7464C7.96899 31.1684 8.00301 30.6002 8.07589 30.0466C8.63955 25.6126 11.3898 21.878 15.1945 19.9646C15.2382 19.9452 15.2771 19.9209 15.3208 19.8966C15.3354 19.8917 15.3499 19.882 15.3597 19.8772C15.452 19.8237 15.5443 19.7703 15.6269 19.7169C18.6784 17.75 17.9593 12.981 14.3733 11.9466C13.9311 11.8106 13.4743 11.7086 13.0127 11.6357Z" fill="url(#paint2_linear_116_4)"/>
<path d="M11.2585 11.5C11.8562 11.5 12.4393 11.5437 13.0126 11.636C13.4791 11.7088 13.9359 11.8108 14.378 11.9371C17.964 12.9667 18.6832 17.7406 15.6317 19.7074C15.5442 19.7608 15.4568 19.8143 15.3644 19.8677C15.3499 19.8774 15.3353 19.8823 15.3256 19.8871C15.2818 19.9114 15.243 19.9308 15.1992 19.9551C11.3946 21.8637 8.64431 25.6032 8.08066 30.0371C8.00777 30.5908 7.97376 31.159 7.97376 31.7369C7.97376 32.106 7.98834 32.4654 8.01749 32.8247C8.03207 33.0238 8.05151 33.2181 8.08066 33.4172C8.12925 33.8106 8.19728 34.1943 8.27988 34.5779C8.29446 34.6411 8.30904 34.7042 8.32362 34.7673C8.36735 34.9567 8.41594 35.1413 8.46939 35.3307C8.48882 35.3938 8.5034 35.4521 8.52284 35.5152C8.61516 35.8357 8.72206 36.1514 8.83868 36.4574C8.87755 36.5642 8.92128 36.6711 8.96502 36.7779C8.98931 36.8362 9.01361 36.8944 9.0379 36.9527C9.0622 37.011 9.08649 37.0693 9.11565 37.1276C9.13994 37.181 9.16424 37.2393 9.18853 37.2927C9.24198 37.4092 9.30029 37.5258 9.3586 37.6423C9.41205 37.754 9.47036 37.8657 9.53353 37.9774C9.56268 38.0309 9.59184 38.0891 9.62099 38.1426C9.65015 38.196 9.68416 38.2543 9.71331 38.3077C9.74247 38.3611 9.77648 38.4145 9.80564 38.4679C9.83479 38.5214 9.8688 38.5748 9.90282 38.6282C9.96599 38.7351 10.034 38.8419 10.102 38.9487C10.1361 39.0022 10.1701 39.0556 10.2041 39.1041C10.2381 39.1576 10.2721 39.2061 10.311 39.2595C10.3839 39.3615 10.4519 39.4635 10.5296 39.5655C10.5637 39.6141 10.6025 39.6675 10.6414 39.7161C10.6803 39.7646 10.7143 39.8132 10.758 39.8666C10.7969 39.9152 10.8358 39.9637 10.8746 40.0123C10.9135 40.0609 10.9524 40.1094 10.9913 40.158C11.0301 40.2066 11.0739 40.2551 11.1127 40.3037C11.1516 40.3523 11.1953 40.396 11.2342 40.4445C11.2731 40.4931 11.3168 40.5368 11.3605 40.5854C11.4043 40.6339 11.4431 40.6776 11.4869 40.7213C11.5695 40.8136 11.6569 40.901 11.7444 40.9933C11.7881 41.037 11.8319 41.0807 11.8756 41.1244C11.9193 41.1681 11.9631 41.2118 12.0117 41.2556C12.1283 41.3721 12.2498 41.479 12.3712 41.5858C12.415 41.6246 12.4587 41.6635 12.4976 41.6975C12.7357 41.9063 12.9786 42.1006 13.2313 42.29C13.2799 42.3288 13.3333 42.3677 13.3819 42.4017C13.4111 42.426 13.4402 42.4454 13.4694 42.4648C13.5131 42.494 13.552 42.5231 13.5957 42.5522C13.6492 42.5862 13.6978 42.6251 13.7512 42.6591C13.8533 42.7319 13.9553 42.7951 14.0622 42.863C14.0962 42.8873 14.1302 42.9068 14.1642 42.931C14.1642 42.9359 14.1642 42.9359 14.1594 42.9359C14.1594 42.9359 14.1594 42.9359 14.1594 42.9407C14.5967 43.2904 15.0534 43.6109 15.5345 43.9072C12.9057 43.0476 10.4859 41.7218 8.38192 40.022C3.46453 36.0591 0.252672 30.076 0.0145773 23.3352C0.0145773 23.3206 0.0145773 23.3109 0.0145773 23.2964C0.00485909 23.0827 0 22.8738 0 22.6602C0.05345 16.4876 5.07289 11.5 11.2585 11.5Z" fill="url(#paint3_linear_116_4)"/>
<path d="M11.6912 32.0093C11.8661 30.6204 12.3326 29.3286 13.0323 28.1873C13.0323 28.1873 13.0323 28.1824 13.0371 28.1824C13.1537 27.993 13.2801 27.8036 13.4064 27.6239C13.4113 27.6191 13.4113 27.6191 13.4161 27.6142C15.4278 25.0306 19.5872 25.4337 21.1129 28.503C22.9302 32.1599 26.4093 34.8455 30.5639 35.5691C31.2976 35.7002 32.0507 35.7634 32.8233 35.7634C33.1878 35.7634 33.5473 35.7488 33.9069 35.7197C37.5464 35.4234 40.7631 33.6314 42.9448 30.9652C42.8768 31.072 42.8088 31.174 42.7407 31.276C42.7067 31.3294 42.6727 31.378 42.6338 31.4314C42.6047 31.4751 42.5755 31.514 42.5464 31.5577C42.5269 31.5868 42.5026 31.616 42.4832 31.6451C42.4492 31.6985 42.4103 31.7471 42.3714 31.7956C42.1819 32.0482 41.9876 32.291 41.7786 32.529C41.7398 32.5727 41.7057 32.6164 41.6669 32.6552C41.56 32.7767 41.4482 32.8981 41.3365 33.0146C41.2927 33.0583 41.249 33.102 41.2053 33.1506C41.1615 33.1943 41.1178 33.238 41.0741 33.2817C40.9866 33.3691 40.8943 33.4566 40.802 33.5391C40.7582 33.5828 40.7096 33.6217 40.6659 33.6654C40.6222 33.7091 40.5736 33.7479 40.525 33.7917C40.4813 33.8305 40.4327 33.8742 40.3841 33.9131C40.3355 33.9519 40.2869 33.9956 40.2383 34.0345C40.1897 34.0733 40.1411 34.117 40.0925 34.151C40.0439 34.1899 39.9953 34.2287 39.9468 34.2676C39.8982 34.3064 39.8496 34.3453 39.7961 34.3841C39.7475 34.423 39.6941 34.4618 39.6455 34.4958C39.5434 34.5687 39.4414 34.6415 39.3394 34.7144C39.2859 34.7484 39.2373 34.7872 39.1839 34.8212C39.1304 34.8552 39.0818 34.8941 39.0284 34.9232C38.9215 34.9912 38.8146 35.0592 38.7077 35.1223C38.6542 35.1563 38.6008 35.1855 38.5473 35.2195C38.4939 35.2534 38.4404 35.2826 38.387 35.3117C38.3335 35.3457 38.2801 35.3749 38.2218 35.404C38.1683 35.4331 38.11 35.4671 38.0566 35.4914C37.9448 35.5497 37.833 35.608 37.7213 35.6663C37.6047 35.7245 37.4881 35.7779 37.3714 35.8362C37.318 35.8605 37.2597 35.8848 37.2062 35.9091C37.1479 35.9334 37.0896 35.9625 37.0313 35.9868C36.973 36.0111 36.9147 36.0353 36.8564 36.0596C36.7495 36.1033 36.6426 36.147 36.5357 36.1859C36.2296 36.3024 35.9137 36.4093 35.593 36.5016C35.5298 36.521 35.4715 36.5356 35.4084 36.555C35.2237 36.6084 35.0342 36.657 34.8447 36.7007C34.7815 36.7152 34.7184 36.7298 34.6552 36.7444C34.2762 36.8269 33.8875 36.8949 33.4939 36.9435C33.2995 36.9678 33.1003 36.9872 32.9011 37.0066C32.5415 37.0358 32.1771 37.0503 31.8126 37.0503C31.2344 37.0503 30.6659 37.0163 30.112 36.9435C25.6756 36.3801 21.939 33.6314 20.0245 29.8288C20.0051 29.7851 19.9808 29.7462 19.9565 29.7025C19.9516 29.6879 19.9419 29.6734 19.937 29.6637C19.8836 29.5714 19.8301 29.4791 19.7767 29.3966C17.8088 26.3467 13.0371 27.0654 12.0021 30.6495C11.8661 31.0866 11.764 31.5431 11.6912 32.0093Z" fill="url(#paint4_linear_116_4)"/>
<path d="M11.5552 33.7573C11.5552 33.16 11.5989 32.5772 11.6912 32.0042C11.7641 31.5379 11.8662 31.0814 11.9925 30.6395C13.0226 27.0554 17.7991 26.3367 19.767 29.3865C19.8205 29.4739 19.8739 29.5614 19.9274 29.6536C19.9371 29.6682 19.942 29.6828 19.9468 29.6925C19.9711 29.7362 19.9905 29.775 20.0148 29.8187C21.9245 33.6214 25.666 36.3701 30.1023 36.9335C30.6562 37.0063 31.2248 37.0403 31.803 37.0403C32.1723 37.0403 32.5319 37.0257 32.8914 36.9966C33.0906 36.982 33.285 36.9626 33.4842 36.9335C33.8778 36.8849 34.2617 36.8169 34.6456 36.7343C34.7087 36.7198 34.7719 36.7052 34.8351 36.6906C35.0246 36.6469 35.2092 36.5984 35.3987 36.5449C35.4619 36.5255 35.5202 36.511 35.5834 36.4915C35.9041 36.3993 36.2199 36.2924 36.526 36.1759C36.6329 36.137 36.7398 36.0933 36.8467 36.0496C36.905 36.0253 36.9633 36.001 37.0216 35.9767C37.08 35.9525 37.1383 35.9282 37.1966 35.899C37.25 35.8748 37.3083 35.8505 37.3618 35.8262C37.4784 35.7728 37.595 35.7145 37.7116 35.6562C37.8234 35.6028 37.9352 35.5445 38.0469 35.4814C38.1004 35.4522 38.1587 35.4231 38.2121 35.394C38.2656 35.3648 38.3239 35.3308 38.3773 35.3017C38.4308 35.2726 38.4842 35.2386 38.5377 35.2094C38.5911 35.1803 38.6446 35.1463 38.698 35.1123C38.8049 35.0492 38.9118 34.9812 39.0187 34.9132C39.0722 34.8792 39.1256 34.8452 39.1742 34.8112C39.2277 34.7772 39.2763 34.7432 39.3297 34.7043C39.4318 34.6315 39.5338 34.5635 39.6358 34.4858C39.6844 34.4518 39.7379 34.413 39.7865 34.3741C39.8351 34.3353 39.8836 34.3013 39.9371 34.2576C39.9857 34.2187 40.0343 34.1799 40.0829 34.141C40.1315 34.1021 40.1801 34.0633 40.2286 34.0244C40.2772 33.9856 40.3258 33.9419 40.3744 33.903C40.423 33.8642 40.4667 33.8205 40.5153 33.7816C40.5639 33.7428 40.6077 33.6991 40.6562 33.6554C40.7048 33.6116 40.7486 33.5728 40.7923 33.5291C40.8846 33.4465 40.9721 33.3591 41.0644 33.2717C41.1081 33.228 41.1519 33.1843 41.1956 33.1406C41.2393 33.0969 41.2831 33.0531 41.3268 33.0046C41.4434 32.888 41.5503 32.7666 41.6572 32.6452C41.6961 32.6015 41.735 32.5578 41.769 32.5189C41.9779 32.281 42.1723 32.0381 42.3618 31.7856C42.4007 31.737 42.4395 31.6836 42.4735 31.6351C42.4978 31.6059 42.5173 31.5768 42.5367 31.5476C42.5659 31.5039 42.595 31.4651 42.6242 31.4214C42.6582 31.368 42.6971 31.3194 42.7311 31.266C42.804 31.164 42.8671 31.062 42.9352 30.9552C42.9594 30.9212 42.9789 30.8872 43.0032 30.8532C43.008 30.8532 43.008 30.8532 43.008 30.858C43.008 30.858 43.008 30.858 43.0129 30.858C43.3628 30.4209 43.6835 29.9644 43.9799 29.4836C43.1198 32.111 41.7933 34.5295 40.0926 36.6324C36.1227 41.5374 30.1363 44.7475 23.3919 44.9855C23.3773 44.9855 23.3676 44.9855 23.353 44.9855C23.1392 44.9952 22.9303 44.9952 22.7165 45.0001C16.5455 44.9612 11.5552 39.9396 11.5552 33.7573Z" fill="url(#paint5_linear_116_4)"/>
<path d="M31.9921 33.3735C30.6024 33.1987 29.3099 32.7324 28.168 32.0331C28.168 32.0331 28.1632 32.0331 28.1632 32.0283C27.9736 31.9117 27.7841 31.7854 27.6044 31.6592C27.5995 31.6543 27.5995 31.6543 27.5946 31.6495C25.0096 29.6389 25.4129 25.4817 28.4839 23.9568C32.1427 22.1405 34.8298 18.6633 35.5538 14.511C35.685 13.7777 35.7482 13.0249 35.7482 12.2527C35.7482 11.8885 35.7336 11.5291 35.7045 11.1697C35.4081 7.53225 33.615 4.31727 30.9474 2.13672C31.0543 2.20471 31.1564 2.2727 31.2584 2.34069C31.3118 2.37469 31.3604 2.40868 31.4139 2.44753C31.4576 2.47667 31.4965 2.50581 31.5402 2.53495C31.5694 2.55437 31.5985 2.57866 31.6277 2.59808C31.6811 2.63208 31.7297 2.67093 31.7783 2.70978C32.031 2.89918 32.2739 3.09344 32.512 3.30227C32.5558 3.34112 32.5995 3.37512 32.6384 3.41397C32.7598 3.52081 32.8813 3.63251 32.9979 3.74421C33.0465 3.79763 33.0903 3.84134 33.134 3.88505C33.1777 3.92875 33.2215 3.97246 33.2652 4.01617C33.3527 4.10359 33.4401 4.19586 33.5227 4.28813C33.5665 4.33184 33.6053 4.3804 33.6491 4.42411C33.6928 4.46782 33.7317 4.51639 33.7754 4.56495C33.8143 4.60866 33.858 4.65722 33.8969 4.70579C33.9358 4.75435 33.9795 4.80292 34.0184 4.85148C34.0572 4.90005 34.101 4.94861 34.135 4.99718C34.1738 5.04574 34.2127 5.09431 34.2516 5.14287C34.2905 5.19143 34.3293 5.24 34.3682 5.29342C34.4071 5.34198 34.446 5.39541 34.48 5.44397C34.5529 5.54596 34.6257 5.64794 34.6986 5.74993C34.7326 5.80335 34.7715 5.85191 34.8055 5.90533C34.8395 5.95876 34.8784 6.00732 34.9076 6.06074C34.9756 6.16758 35.0436 6.27443 35.1068 6.38127C35.1408 6.43469 35.17 6.48811 35.204 6.54153C35.238 6.59495 35.2671 6.64837 35.2963 6.7018C35.3303 6.75522 35.3595 6.80864 35.3886 6.86691C35.4178 6.92034 35.4518 6.97861 35.4761 7.03203C35.5344 7.14373 35.5927 7.25543 35.651 7.36713C35.7093 7.48369 35.7628 7.60024 35.8211 7.7168C35.8454 7.77022 35.8697 7.8285 35.894 7.88192C35.9183 7.94019 35.9474 7.99847 35.9717 8.05675C35.996 8.11503 36.0203 8.1733 36.0446 8.23158C36.0883 8.33842 36.1321 8.44527 36.1709 8.55211C36.2875 8.85807 36.3944 9.17374 36.4868 9.49426C36.5062 9.5574 36.5208 9.61567 36.5402 9.67881C36.5937 9.86335 36.6423 10.0528 36.686 10.2422C36.7006 10.3053 36.7151 10.3684 36.7297 10.4316C36.8123 10.8104 36.8804 11.1989 36.9289 11.5923C36.9532 11.7865 36.9727 11.9856 36.9921 12.1847C37.0213 12.5441 37.0358 12.9084 37.0358 13.2726C37.0358 13.8505 37.0018 14.4187 36.9289 14.9724C36.3653 19.4063 33.615 23.1409 29.8104 25.0544C29.7667 25.0738 29.7278 25.0981 29.684 25.1224C29.6695 25.1272 29.6549 25.1369 29.6452 25.1418C29.5529 25.1952 29.4605 25.2486 29.3779 25.3021C26.3264 27.2689 27.0456 32.038 30.6316 33.0724C31.0689 33.1987 31.5256 33.3006 31.9921 33.3735Z" fill="url(#paint6_linear_116_4)"/>
<path d="M33.7466 33.5097C33.1489 33.5097 32.5658 33.466 31.9924 33.3737C31.526 33.3009 31.0692 33.1989 30.627 33.0726C27.041 32.043 26.3219 27.2691 29.3734 25.3023C29.4609 25.2489 29.5483 25.1954 29.6406 25.142C29.6552 25.1323 29.6698 25.1274 29.6795 25.1226C29.7232 25.0983 29.7621 25.0789 29.8059 25.0546C33.6105 23.146 36.3608 19.4065 36.9244 14.9726C36.9973 14.4189 37.0313 13.8507 37.0313 13.2728C37.0313 12.9037 37.0167 12.5443 36.9876 12.185C36.973 11.9859 36.9536 11.7916 36.9244 11.5925C36.8758 11.1991 36.8078 10.8154 36.7252 10.4318C36.7106 10.3686 36.696 10.3055 36.6815 10.2424C36.6377 10.053 36.5891 9.86843 36.5357 9.67903C36.5162 9.6159 36.5017 9.55762 36.4822 9.49448C36.3899 9.17396 36.283 8.85829 36.1664 8.55233C36.1275 8.44549 36.0838 8.33865 36.0401 8.2318C36.0158 8.17353 35.9915 8.11525 35.9672 8.05697C35.9429 7.99869 35.9186 7.94041 35.8894 7.88214C35.8651 7.82872 35.8408 7.77044 35.8165 7.71702C35.7631 7.60046 35.7048 7.48391 35.6465 7.36735C35.593 7.25565 35.5347 7.14395 35.4715 7.03226C35.4424 6.97883 35.4132 6.92056 35.3841 6.86714C35.3549 6.81372 35.3209 6.75544 35.2918 6.70202C35.2626 6.6486 35.2286 6.59517 35.1994 6.54175C35.1703 6.48833 35.1363 6.43491 35.1023 6.38149C35.0391 6.27465 34.9711 6.16781 34.903 6.06096C34.869 6.00754 34.835 5.95412 34.801 5.90556C34.767 5.85214 34.733 5.80357 34.6941 5.75015C34.6212 5.64816 34.5532 5.54618 34.4754 5.44419C34.4414 5.39563 34.4025 5.34221 34.3637 5.29364C34.3248 5.24508 34.2908 5.19651 34.2471 5.14309C34.2082 5.09453 34.1693 5.04596 34.1304 4.9974C34.0916 4.94883 34.0527 4.90027 34.0138 4.8517C33.9749 4.80314 33.9312 4.75457 33.8923 4.70601C33.8535 4.65744 33.8097 4.61374 33.7709 4.56517C33.732 4.51661 33.6883 4.4729 33.6445 4.42433C33.6008 4.37577 33.5619 4.33206 33.5182 4.28835C33.4356 4.19608 33.3481 4.10866 33.2607 4.01639C33.2218 3.97268 33.1781 3.92898 33.1343 3.88527C33.0906 3.84156 33.0469 3.79785 32.9983 3.75414C32.8817 3.63759 32.7602 3.53075 32.6387 3.4239C32.5998 3.38505 32.5561 3.3462 32.5124 3.30735C32.2743 3.09852 32.0313 2.90426 31.7786 2.71486C31.7301 2.67601 31.6766 2.63716 31.628 2.60316C31.5989 2.57888 31.5697 2.55945 31.5405 2.54003C31.4968 2.51089 31.4579 2.48175 31.4142 2.45261C31.3608 2.41861 31.3122 2.37976 31.2587 2.34577C31.1567 2.27292 31.0546 2.20979 30.9477 2.1418C30.9137 2.11751 30.8797 2.09809 30.8457 2.07381C30.8457 2.06895 30.8457 2.06895 30.8506 2.06895C30.8506 2.06895 30.8506 2.06895 30.8506 2.06409C30.4132 1.71443 29.9565 1.3939 29.4754 1.09766C32.1042 1.95725 34.524 3.28307 36.628 4.98283C41.5357 8.95056 44.7475 14.9337 44.9856 21.6745C44.9856 21.6891 44.9856 21.6988 44.9856 21.7134C44.9954 21.927 44.9954 22.1359 45.0002 22.3495C44.9516 28.5221 39.9322 33.5097 33.7466 33.5097Z" fill="url(#paint7_linear_116_4)"/>
<path d="M71.5064 25.3018C71.5064 29.0315 69.846 30.9304 66.5644 30.8916C63.2829 30.8527 61.6225 28.9927 61.6225 25.3018V9.64453H59.0189C57.5844 9.64453 56.3809 10.9849 56.3809 12.3642V25.8943C56.3809 32.3048 60.0014 35.3644 66.5595 35.3644C73.0096 35.3644 76.7038 32.1202 76.7038 25.8943V9.64453H71.5015V25.3018H71.5064Z" fill="white"/>
<path d="M85.3986 9.83398H80.8005V34.9953H85.3986V9.83398Z" fill="white"/>
<path d="M95.4302 30.221C95.1158 30.0462 94.8702 29.8617 94.6933 29.6625C94.4919 29.4149 94.3544 29.1429 94.2807 28.8418V20.5275H98.6184V16.0936H94.2807V11.0234H89.6826V29.478C89.6826 30.7698 89.9528 31.7848 90.4932 32.5181C91.0336 33.2515 91.628 33.8051 92.2862 34.1791C93.0673 34.6259 93.9466 34.8978 94.9242 34.9998H99.5223V30.4881H96.6583C96.1524 30.4833 95.7446 30.3959 95.4302 30.221Z" fill="white"/>
<path d="M105.992 16.9145C105.339 17.2884 104.734 17.8421 104.184 18.5754C103.629 19.3087 103.354 20.3237 103.354 21.6156V35H107.991V22.2469C108.065 21.9506 108.203 21.6738 108.404 21.4261C108.581 21.227 108.827 21.0425 109.141 20.8677C109.455 20.6928 109.863 20.6054 110.364 20.6054H113.906V16.0938H108.625C107.648 16.1957 106.768 16.4677 105.992 16.9145Z" fill="white"/>
<path d="M227.099 19.6538C226.687 18.9448 226.205 18.3572 225.665 17.8812C225.124 17.4101 224.579 17.0216 224.024 16.7254C222.717 16.0309 221.234 15.657 219.573 15.6084C217.888 15.657 216.395 16.0309 215.088 16.7254C214.533 17.0216 213.988 17.4101 213.448 17.8812C212.907 18.3523 212.431 18.9448 212.013 19.6538C211.6 20.3629 211.266 21.203 211.016 22.1695C210.765 23.1408 210.638 24.2675 210.638 25.5593C210.638 26.8511 210.765 27.9827 211.016 28.9491C211.266 29.9204 211.6 30.7509 212.013 31.4453C212.426 32.1398 212.907 32.7177 213.448 33.1791C213.988 33.6405 214.533 34.0193 215.088 34.3155C216.395 34.9857 217.893 35.3354 219.573 35.3596C221.234 35.3354 222.717 34.9857 224.024 34.3155C224.579 34.0193 225.124 33.6405 225.665 33.1791C226.205 32.7177 226.682 32.1398 227.099 31.4453C227.512 30.7509 227.856 29.9155 228.116 28.9491C228.381 27.9778 228.514 26.8511 228.514 25.5593C228.514 24.2675 228.381 23.1359 228.116 22.1695C227.856 21.203 227.517 20.3629 227.099 19.6538ZM223.724 27.3513C223.621 27.9972 223.425 28.5994 223.12 29.1579C222.821 29.7164 222.383 30.1826 221.818 30.5566C221.253 30.9305 220.507 31.1151 219.573 31.1151C218.645 31.1151 217.893 30.9305 217.328 30.5566C216.763 30.1826 216.331 29.7164 216.027 29.1579C215.727 28.5994 215.525 27.9972 215.422 27.3513C215.319 26.7054 215.27 26.1081 215.27 25.5642C215.27 25.0202 215.319 24.4229 215.422 23.777C215.521 23.1311 215.722 22.5289 216.027 21.9704C216.326 21.4119 216.763 20.9457 217.328 20.5717C217.893 20.1978 218.64 20.0132 219.573 20.0132C220.502 20.0132 221.253 20.1978 221.818 20.5717C222.383 20.9457 222.816 21.4119 223.12 21.9704C223.42 22.5289 223.621 23.1311 223.724 23.777C223.823 24.4229 223.877 25.0202 223.877 25.5642C223.877 26.1081 223.828 26.7054 223.724 27.3513Z" fill="white"/>
<path d="M246.725 18.5563C246.12 17.8084 245.467 17.2402 244.765 16.842C244.062 16.4437 243.394 16.1523 242.765 15.9678C242.136 15.7833 241.591 15.6764 241.124 15.6521C240.658 15.6278 240.387 15.6133 240.314 15.6133C240.211 15.6133 239.936 15.6278 239.484 15.6521C239.032 15.6764 238.491 15.7833 237.862 15.9678C237.234 16.1523 236.566 16.4486 235.863 16.842C235.161 17.2402 234.507 17.8133 233.903 18.5563C233.299 19.2993 232.803 20.2415 232.415 21.373C232.026 22.5046 231.83 23.9033 231.83 25.5642V34.9954H236.428V25.5642C236.428 25.0203 236.477 24.4569 236.58 23.8887C236.679 23.3156 236.87 22.796 237.145 22.3249C237.42 21.8538 237.813 21.4605 238.314 21.1496C238.815 20.8388 239.484 20.6834 240.314 20.6834C241.144 20.6834 241.807 20.8388 242.313 21.1496C242.814 21.4605 243.207 21.8538 243.482 22.3249C243.757 22.796 243.949 23.3205 244.047 23.8887C244.146 24.4618 244.2 25.0203 244.2 25.5642V34.9954H248.798V25.5642C248.798 23.8984 248.601 22.4997 248.213 21.373C247.825 20.2366 247.329 19.2993 246.725 18.5563Z" fill="white"/>
<path d="M269.445 26.6083C269.081 25.9867 268.61 25.4768 268.03 25.0785C267.45 24.6803 266.807 24.3743 266.09 24.1655C265.372 23.9567 264.665 23.8061 263.958 23.7187C263.255 23.6313 262.592 23.5827 261.978 23.5682C261.364 23.5536 260.877 23.5487 260.524 23.5487C259.566 23.5487 258.79 23.4128 258.185 23.1408C257.581 22.8688 257.281 22.4075 257.281 21.7616C257.281 21.0914 257.596 20.562 258.225 20.1784C258.854 19.7947 259.684 19.6004 260.715 19.6004C262.096 19.6004 263.059 19.8287 263.599 20.2901C264.139 20.7514 264.41 21.3779 264.41 22.1744H269.008C269.032 20.6834 268.723 19.5033 268.084 18.634C267.445 17.7647 266.674 17.1042 265.785 16.6574C264.891 16.2106 263.982 15.9241 263.054 15.7978C262.125 15.6716 261.383 15.6133 260.828 15.6133C259.772 15.6133 258.765 15.7395 257.812 15.9872C256.854 16.2349 256.009 16.6089 255.267 17.1042C254.526 17.5996 253.931 18.2406 253.474 19.0225C253.022 19.8044 252.796 20.7174 252.796 21.7616C252.796 22.7086 253.022 23.5245 253.474 24.2238C253.926 24.9183 254.516 25.4962 255.248 25.9576C255.975 26.4189 256.795 26.7589 257.699 26.9823C258.603 27.2057 259.507 27.3319 260.416 27.3562C261.595 27.3805 262.523 27.4582 263.186 27.5796C263.849 27.7059 264.341 27.8613 264.655 28.0458C264.97 28.2304 265.166 28.4392 265.24 28.6626C265.313 28.886 265.353 29.1094 265.353 29.3328C265.353 29.5319 265.323 29.7407 265.259 29.9641C265.195 30.1875 265.014 30.4061 264.714 30.6149C264.414 30.8286 263.943 30.9937 263.299 31.12C262.661 31.2462 261.747 31.2948 260.568 31.2705C259.61 31.2462 258.858 31.1297 258.303 30.916C257.748 30.7072 257.336 30.4498 257.06 30.1535C256.785 29.8573 256.608 29.5513 256.535 29.2405C256.461 28.9297 256.422 28.6626 256.422 28.4392H251.824C251.824 29.6096 252.025 30.5955 252.428 31.4016C252.831 32.2078 253.337 32.8683 253.956 33.3782C254.57 33.8882 255.248 34.2815 255.99 34.5535C256.731 34.8255 257.434 35.0246 258.102 35.1508C258.765 35.2771 259.35 35.3451 259.856 35.3548C260.357 35.3694 260.686 35.3742 260.838 35.3742C261.668 35.3742 262.616 35.3111 263.682 35.1897C264.748 35.0634 265.751 34.7817 266.679 34.3301C267.608 33.8833 268.394 33.2325 269.037 32.3729C269.676 31.5133 270 30.3672 270 28.9249C269.99 27.9973 269.808 27.2299 269.445 26.6083Z" fill="white"/>
<path d="M150.597 9.64451C149.315 9.64451 148.485 10.203 148.106 11.32L138.178 34.9904H143.798L151.766 14.7486L157.327 29.8085L159.572 34.9904H165.113L154.817 9.63965H150.597V9.64451Z" fill="white"/>
<path d="M151.648 34.9909C153.426 34.9909 154.866 33.5667 154.866 31.8099C154.866 30.0531 153.426 28.6289 151.648 28.6289C149.871 28.6289 148.431 30.0531 148.431 31.8099C148.431 33.5667 149.871 34.9909 151.648 34.9909Z" fill="white"/>
<path d="M181.305 18.7407V25.4864C181.305 25.5107 181.305 25.5349 181.305 25.5592C181.305 26.108 181.256 26.7005 181.153 27.3464C181.055 27.9923 180.844 28.5945 180.529 29.153C180.215 29.7115 179.777 30.1777 179.208 30.5517C178.643 30.9256 177.896 31.1102 176.963 31.1102C176.034 31.1102 175.283 30.9256 174.718 30.5517C174.153 30.1777 173.72 29.7115 173.416 29.153C173.116 28.5945 172.915 27.9923 172.812 27.3464C172.708 26.7005 172.659 26.1031 172.659 25.5592C172.659 25.0153 172.708 24.4179 172.812 23.772C172.91 23.1261 173.111 22.5239 173.416 21.9654C173.716 21.4069 174.153 20.9407 174.718 20.5668C175.283 20.1928 176.029 20.0083 176.963 20.0083C177.891 20.0083 178.643 20.1928 179.208 20.5668C179.296 20.625 179.38 20.693 179.458 20.7562V16.6427C179.163 16.4582 178.874 16.2979 178.584 16.1717C177.857 15.8754 177.1 15.686 176.324 15.6132C174.767 15.6617 173.381 16.0357 172.178 16.7302C171.652 17.0264 171.141 17.4149 170.65 17.886C170.159 18.3571 169.722 18.9496 169.329 19.6586C168.941 20.3677 168.626 21.2078 168.385 22.1743C168.145 23.1456 168.027 24.2723 168.027 25.5641C168.027 26.8559 168.155 27.9874 168.405 28.9539C168.656 29.9252 168.99 30.7556 169.402 31.4501C169.815 32.1446 170.296 32.7225 170.837 33.1839C171.377 33.6452 171.922 34.024 172.478 34.3203C173.784 34.9905 175.283 35.3401 176.963 35.3644C178.599 35.3401 180.067 34.9905 181.374 34.3203C181.929 34.024 182.47 33.6452 182.995 33.1839C183.521 32.7225 183.992 32.1397 184.41 31.4307C184.828 30.7216 185.157 29.8815 185.407 28.915C185.658 27.9437 185.785 26.817 185.785 25.5252V9.83398H181.3V18.7407H181.305Z" fill="white"/>
<path d="M132.583 18.2746C131.866 17.415 130.957 16.7594 129.852 16.298C128.746 15.8367 127.4 15.6084 125.819 15.6084C124.134 15.657 122.64 16.0309 121.334 16.7254C120.778 17.0216 120.233 17.4101 119.693 17.8812C119.152 18.3523 118.676 18.9448 118.258 19.6538C117.846 20.3629 117.512 21.203 117.261 22.1695C117.011 23.1408 116.883 24.2675 116.883 25.5593C116.883 26.8511 117.001 27.9827 117.241 28.9491C117.482 29.9204 117.792 30.7509 118.185 31.4453C118.573 32.1398 119.015 32.7177 119.506 33.1791C119.997 33.6405 120.503 34.0193 121.034 34.3155C122.242 34.9857 123.623 35.3354 125.18 35.3596C125.961 35.3111 126.713 35.146 127.445 34.874C127.734 34.7623 128.024 34.6117 128.319 34.4321V30.3623C128.236 30.4255 128.157 30.4935 128.069 30.5517C127.504 30.9257 126.757 31.1102 125.824 31.1102C124.895 31.1102 124.143 30.9257 123.579 30.5517C123.014 30.1778 122.581 29.7116 122.277 29.1531C121.977 28.5946 121.776 27.9924 121.672 27.3465C121.569 26.7006 121.52 26.1032 121.52 25.5593C121.52 25.0154 121.569 24.418 121.672 23.7721C121.771 23.1262 121.972 22.524 122.277 21.9655C122.576 21.407 123.014 20.9408 123.579 20.5668C124.143 20.1929 124.89 20.0084 125.824 20.0084C126.806 20.0084 127.582 20.1686 128.162 20.494C128.742 20.8194 129.174 21.2468 129.464 21.781C129.754 22.3152 129.94 22.9125 130.029 23.5681C130.117 24.2189 130.161 24.8794 130.161 25.5447V32.3875V34.9954H134.646V25.5981C134.646 24.0344 134.484 22.6357 134.155 21.407C133.821 20.1783 133.295 19.1342 132.583 18.2746Z" fill="white"/>
<path d="M202.65 18.2939L202.645 18.2891V25.399C202.645 25.4524 202.65 25.5107 202.65 25.5641C202.65 26.1129 202.601 26.7053 202.497 27.3513C202.394 27.9972 202.188 28.5994 201.874 29.1579C201.559 29.7164 201.122 30.1826 200.552 30.5565C199.987 30.9305 199.241 31.115 198.307 31.115C197.379 31.115 196.627 30.9305 196.062 30.5565C195.497 30.1826 195.065 29.7164 194.76 29.1579C194.461 28.5994 194.259 27.9972 194.156 27.3513C194.053 26.7053 194.004 26.108 194.004 25.5641C194.004 25.0201 194.053 24.4228 194.156 23.7769C194.254 23.131 194.456 22.5288 194.76 21.9703C195.06 21.4118 195.497 20.9456 196.062 20.5716C196.627 20.1977 197.374 20.0131 198.307 20.0131C199.236 20.0131 199.987 20.1977 200.552 20.5716C200.641 20.6299 200.719 20.693 200.803 20.7562V16.6427C200.508 16.4582 200.218 16.2979 199.933 16.1717C199.206 15.8754 198.45 15.686 197.669 15.6132C196.111 15.6617 194.726 16.0357 193.522 16.7302C192.997 17.0264 192.486 17.4149 191.995 17.886C191.503 18.3571 191.066 18.9496 190.673 19.6586C190.285 20.3677 189.971 21.2078 189.73 22.1743C189.489 23.1456 189.371 24.2723 189.371 25.5641C189.371 26.8559 189.499 27.9874 189.75 28.9539C190 29.9252 190.334 30.7556 190.747 31.4501C191.159 32.1446 191.641 32.7225 192.181 33.1839C192.722 33.6452 193.267 34.024 193.822 34.3203C195.129 34.9905 196.627 35.3401 198.307 35.3644C199.943 35.3401 201.412 34.9905 202.719 34.3203C203.274 34.024 203.814 33.6452 204.34 33.1839C204.865 32.7225 205.337 32.1397 205.754 31.4307C206.167 30.7216 206.501 29.8815 206.752 28.915C207.002 27.9437 207.13 26.817 207.13 25.5252V9.83398H202.645V18.2939H202.65Z" fill="white"/>
<defs>
<linearGradient id="paint0_linear_116_4" x1="2.11785" y1="13.5338" x2="33.3672" y2="13.5338" gradientUnits="userSpaceOnUse">
<stop offset="0.0148" stop-color="#3FAF3E"/>
<stop offset="0.5123" stop-color="#AACD3D"/>
<stop offset="1" stop-color="#2C7035"/>
</linearGradient>
<linearGradient id="paint1_linear_116_4" x1="1.07383" y1="8.76907" x2="33.5031" y2="8.76907" gradientUnits="userSpaceOnUse">
<stop stop-color="#2C7035"/>
<stop offset="0.0914" stop-color="#3A7A36"/>
<stop offset="0.5195" stop-color="#76A73A"/>
<stop offset="0.8344" stop-color="#9CC23C"/>
<stop offset="1" stop-color="#AACD3D"/>
</linearGradient>
<linearGradient id="paint2_linear_116_4" x1="13.5409" y1="42.8696" x2="13.5409" y2="11.6371" gradientUnits="userSpaceOnUse">
<stop stop-color="#2B3990"/>
<stop offset="0.4877" stop-color="#00AEEF"/>
<stop offset="0.9754" stop-color="#284297"/>
</linearGradient>
<linearGradient id="paint3_linear_116_4" x1="8.77386" y1="43.9133" x2="8.77386" y2="11.5015" gradientUnits="userSpaceOnUse">
<stop stop-color="#2B3990"/>
<stop offset="1" stop-color="#00AEEF"/>
</linearGradient>
<linearGradient id="paint4_linear_116_4" x1="42.9427" y1="31.4777" x2="11.6933" y2="31.4777" gradientUnits="userSpaceOnUse">
<stop stop-color="#662D91"/>
<stop offset="0.4877" stop-color="#E3278F"/>
<stop offset="1" stop-color="#6E2D91"/>
</linearGradient>
<linearGradient id="paint5_linear_116_4" x1="43.9868" y1="36.2419" x2="11.5575" y2="36.2419" gradientUnits="userSpaceOnUse">
<stop stop-color="#662D91"/>
<stop offset="1" stop-color="#E3278F"/>
</linearGradient>
<linearGradient id="paint6_linear_116_4" x1="31.4618" y1="2.1391" x2="31.4618" y2="33.3716" gradientUnits="userSpaceOnUse">
<stop offset="0.0296" stop-color="#E35B2B"/>
<stop offset="0.0565" stop-color="#E66528"/>
<stop offset="0.1693" stop-color="#F08C1E"/>
<stop offset="0.2735" stop-color="#F7A717"/>
<stop offset="0.3648" stop-color="#FBB813"/>
<stop offset="0.4335" stop-color="#FDBE11"/>
<stop offset="0.5414" stop-color="#FAB114"/>
<stop offset="0.7419" stop-color="#F18E1D"/>
<stop offset="1" stop-color="#E3592B"/>
</linearGradient>
<linearGradient id="paint7_linear_116_4" x1="36.2292" y1="1.09581" x2="36.2292" y2="33.5076" gradientUnits="userSpaceOnUse">
<stop stop-color="#E3592B"/>
<stop offset="1" stop-color="#FDBE11"/>
</linearGradient>
</defs>
</svg>
