<svg width="80" height="80" viewBox="0 0 80 80" fill="none" xmlns="http://www.w3.org/2000/svg">
<path d="M80 40C80 37.0743 78.08 34.6057 75.44 33.7486V11.0629C75.44 7.47429 72.5257 4.56 68.9371 4.56H46.2514C45.3943 1.92 42.9257 0 40 0C37.0743 0 34.6057 1.92 33.7486 4.56H12.0686C8.48 4.56 5.56571 7.47429 5.56571 11.0629V33.52C2.42286 34 0 36.72 0 40C0 43.28 2.42286 46 5.57714 46.48V67.92C5.57714 71.5086 8.49143 74.4229 12.08 74.4229H33.52C34 77.5771 36.72 80 40 80C43.28 80 46 77.5771 46.48 74.4229H68.9371C72.5257 74.4229 75.44 71.5086 75.44 67.92V46.2514C78.08 45.3943 80 42.9257 80 40ZM40 3.00571C41.9657 3.00571 43.5657 4.60571 43.5657 6.57143C43.5657 8.53714 41.9657 10.1371 40 10.1371C38.0343 10.1371 36.4343 8.53714 36.4343 6.57143C36.4343 4.59429 38.0343 3.00571 40 3.00571ZM3.00571 40C3.00571 38.0343 4.60571 36.4343 6.57143 36.4343C8.53714 36.4343 10.1371 38.0343 10.1371 40C10.1371 41.9657 8.53714 43.5657 6.57143 43.5657C4.59429 43.5657 3.00571 41.9657 3.00571 40ZM40 77.0057C38.0343 77.0057 36.4343 75.4057 36.4343 73.44C36.4343 71.4743 38.0343 69.8743 40 69.8743C41.9657 69.8743 43.5657 71.4743 43.5657 73.44C43.5657 75.4057 41.9657 77.0057 40 77.0057ZM68.9371 71.4286H46.2514C45.4057 68.7886 42.9257 66.8686 40 66.8686C37.0743 66.8686 34.6057 68.7886 33.7486 71.4286H12.0686C10.1371 71.4286 8.57143 69.8629 8.57143 67.9314V46.2514C11.2114 45.4057 13.1314 42.9257 13.1314 40C13.1314 37.0743 11.2114 34.6057 8.57143 33.7486V11.0629C8.57143 9.13143 10.1371 7.56571 12.0686 7.56571H33.5086C33.9886 10.72 36.7086 13.1429 39.9886 13.1429C43.2686 13.1429 45.9886 10.72 46.4686 7.56571H68.9257C70.8571 7.56571 72.4229 9.13143 72.4229 11.0629V33.52C69.2686 34 66.8457 36.72 66.8457 40C66.8457 43.28 69.2686 46 72.4229 46.48V67.92C72.4457 69.8629 70.8686 71.4286 68.9371 71.4286ZM73.4286 43.5657C71.4629 43.5657 69.8629 41.9657 69.8629 40C69.8629 38.0343 71.4629 36.4343 73.4286 36.4343C75.3943 36.4343 76.9943 38.0343 76.9943 40C76.9943 41.9657 75.4057 43.5657 73.4286 43.5657Z" fill="#9292A1"/>
<path d="M52.6629 25.8398H44.56C43.7257 25.8398 43.0629 26.5141 43.0629 27.337V34.9598H36.9486V27.337C36.9486 26.5027 36.2743 25.8398 35.4514 25.8398H27.3486C26.5143 25.8398 25.8514 26.5141 25.8514 27.337V52.6627C25.8514 53.497 26.5257 54.1598 27.3486 54.1598H35.4514C36.2857 54.1598 36.9486 53.4856 36.9486 52.6627V46.057H43.0629V52.6627C43.0629 53.497 43.7372 54.1598 44.56 54.1598H52.6629C53.4972 54.1598 54.16 53.4856 54.16 52.6627V27.337C54.16 26.5027 53.4972 25.8398 52.6629 25.8398ZM46.0572 44.5598C46.0572 43.7256 45.3829 43.0627 44.56 43.0627H35.44C34.6057 43.0627 33.9429 43.737 33.9429 44.5598V51.1656H28.8343V28.8341H33.9429V36.457C33.9429 37.2913 34.6172 37.9541 35.44 37.9541H44.56C45.3943 37.9541 46.0572 37.2798 46.0572 36.457V28.8341H51.1657V51.1656H46.0572V44.5598Z" fill="#9292A1"/>
</svg>
