<svg width="80" height="80" viewBox="0 0 80 80" fill="none" xmlns="http://www.w3.org/2000/svg">
<path d="M40 80C17.94 80 0 62.06 0 40C0 17.94 17.94 0 40 0C62.06 0 80 17.94 80 40C80 62.06 62.06 80 40 80ZM40 3C19.6 3 3 19.6 3 40C3 60.4 19.6 77 40 77C60.4 77 77 60.4 77 40C77 19.6 60.4 3 40 3Z" fill="#9292A1"/>
<path d="M55.4 50.2C55.15 50.2 54.9 50.14 54.66 50.01L39.26 41.31C38.79 41.04 38.5 40.54 38.5 40V19C38.5 18.17 39.17 17.5 40 17.5C40.83 17.5 41.5 18.17 41.5 19V39.12L56.14 47.39C56.86 47.8 57.12 48.71 56.71 49.43C56.43 49.93 55.92 50.2 55.4 50.2Z" fill="#9292A1"/>
<path d="M12 41.5H7C6.17 41.5 5.5 40.83 5.5 40C5.5 39.17 6.17 38.5 7 38.5H12C12.83 38.5 13.5 39.17 13.5 40C13.5 40.83 12.83 41.5 12 41.5Z" fill="#9292A1"/>
<path d="M73 41.5H68C67.17 41.5 66.5 40.83 66.5 40C66.5 39.17 67.17 38.5 68 38.5H73C73.83 38.5 74.5 39.17 74.5 40C74.5 40.83 73.83 41.5 73 41.5Z" fill="#9292A1"/>
<path d="M40 13.5C39.17 13.5 38.5 12.83 38.5 12V7C38.5 6.17 39.17 5.5 40 5.5C40.83 5.5 41.5 6.17 41.5 7V12C41.5 12.83 40.83 13.5 40 13.5Z" fill="#9292A1"/>
<path d="M40 74.5C39.17 74.5 38.5 73.83 38.5 73V68C38.5 67.17 39.17 66.5 40 66.5C40.83 66.5 41.5 67.17 41.5 68V73C41.5 73.83 40.83 74.5 40 74.5Z" fill="#9292A1"/>
</svg>
