<svg width="80" height="80" viewBox="0 0 80 80" fill="none" xmlns="http://www.w3.org/2000/svg">
<path d="M74.94 0H5.06C2.27 0 0 2.24 0 5V75C0 77.76 2.27 80 5.06 80H74.93C77.73 80 79.99 77.76 79.99 75V5C80 2.24 77.73 0 74.94 0ZM5.06 3H74.93C76.05 3 76.96 3.9 76.96 5V12.53H3.04V5C3.04 3.9 3.95 3 5.06 3ZM74.94 77H5.06C3.94 77 3.03 76.1 3.03 75V15.53H76.95V75C76.96 76.1 76.05 77 74.94 77Z" fill="#9292A1"/>
<path d="M8.81 9.3202C9.67156 9.3202 10.37 8.62176 10.37 7.7602C10.37 6.89863 9.67156 6.2002 8.81 6.2002C7.94844 6.2002 7.25 6.89863 7.25 7.7602C7.25 8.62176 7.94844 9.3202 8.81 9.3202Z" fill="#9292A1"/>
<path d="M15.04 9.3202C15.9 9.3202 16.6 8.6202 16.6 7.7602C16.6 6.9002 15.9 6.2002 15.04 6.2002C14.18 6.2002 13.48 6.9002 13.48 7.7602C13.48 8.6202 14.18 9.3202 15.04 9.3202Z" fill="#9292A1"/>
<path d="M21.28 9.3202C22.1415 9.3202 22.84 8.62176 22.84 7.7602C22.84 6.89863 22.1415 6.2002 21.28 6.2002C20.4184 6.2002 19.72 6.89863 19.72 7.7602C19.72 8.62176 20.4184 9.3202 21.28 9.3202Z" fill="#9292A1"/>
<path d="M68.05 28.6299H36.36C35.52 28.6299 34.84 29.2999 34.84 30.1299C34.84 30.9599 35.52 31.6299 36.36 31.6299H68.04C68.88 31.6299 69.56 30.9599 69.56 30.1299C69.56 29.2999 68.89 28.6299 68.05 28.6299Z" fill="#9292A1"/>
<path d="M36.36 38.8999H51.42C52.26 38.8999 52.94 38.2299 52.94 37.3999C52.94 36.5699 52.26 35.8999 51.42 35.8999H36.36C35.52 35.8999 34.84 36.5699 34.84 37.3999C34.84 38.2299 35.52 38.8999 36.36 38.8999Z" fill="#9292A1"/>
<path d="M16.11 31.1698C16.97 31.1698 17.67 30.4698 17.67 29.6098C17.67 28.7498 16.97 28.0498 16.11 28.0498C15.25 28.0498 14.55 28.7498 14.55 29.6098C14.55 30.4698 15.25 31.1698 16.11 31.1698Z" fill="#9292A1"/>
<path d="M26.5499 24.46H13.9799C12.2999 24.46 10.9399 25.81 10.9399 27.46V40.08C10.9399 41.73 12.2999 43.08 13.9799 43.08H26.5499C28.2299 43.08 29.5899 41.73 29.5899 40.08V27.46C29.5899 25.8 28.2199 24.46 26.5499 24.46ZM13.9799 26.46H26.2799L21.4299 33.82C21.3999 33.87 21.3399 33.92 21.2999 33.89C21.2499 33.89 21.1999 33.87 21.1699 33.82L21.0099 33.58C20.6099 32.98 19.9499 32.62 19.2299 32.61C18.5299 32.61 17.8299 32.93 17.4099 33.51L12.9699 39.64V27.46C12.9699 26.91 13.4199 26.46 13.9799 26.46ZM26.5499 41.08H14.4099L19.0499 34.68C19.0799 34.64 19.1299 34.61 19.1799 34.61C19.2199 34.6 19.2799 34.63 19.3099 34.68L19.4699 34.92C19.8799 35.53 20.5599 35.89 21.2899 35.89C21.2899 35.89 21.2899 35.89 21.2999 35.89C22.0399 35.89 22.7199 35.52 23.1199 34.91L27.5499 28.18V40.08C27.5599 40.63 27.1099 41.08 26.5499 41.08Z" fill="#9292A1"/>
<path d="M68.05 55.6401H36.36C35.52 55.6401 34.84 56.3101 34.84 57.1401C34.84 57.9701 35.52 58.6401 36.36 58.6401H68.04C68.88 58.6401 69.56 57.9701 69.56 57.1401C69.56 56.3101 68.89 55.6401 68.05 55.6401Z" fill="#9292A1"/>
<path d="M51.43 62.9102H36.36C35.52 62.9102 34.84 63.5802 34.84 64.4102C34.84 65.2402 35.52 65.9102 36.36 65.9102H51.42C52.26 65.9102 52.94 65.2402 52.94 64.4102C52.94 63.5802 52.27 62.9102 51.43 62.9102Z" fill="#9292A1"/>
<path d="M16.11 58.1801C16.97 58.1801 17.67 57.4801 17.67 56.6201C17.67 55.7601 16.97 55.0601 16.11 55.0601C15.25 55.0601 14.55 55.7601 14.55 56.6201C14.55 57.4801 15.25 58.1801 16.11 58.1801Z" fill="#9292A1"/>
<path d="M26.5499 51.4702H13.9799C12.2999 51.4702 10.9399 52.8202 10.9399 54.4702V67.0902C10.9399 68.7402 12.2999 70.0902 13.9799 70.0902H26.5499C28.2299 70.0902 29.5899 68.7402 29.5899 67.0902V54.4702C29.5899 52.8102 28.2199 51.4702 26.5499 51.4702ZM13.9799 53.4702H26.2899L21.3299 61.0702L20.8599 60.3702C20.4999 59.8302 19.8899 59.4902 19.2299 59.4802C18.5699 59.4902 17.9499 59.7802 17.5699 60.3002L12.9699 66.6402V54.4702C12.9699 53.9102 13.4199 53.4702 13.9799 53.4702ZM26.5499 68.0902H14.4099L19.1699 61.4702L19.6399 62.1702C20.0099 62.7302 20.6299 63.0602 21.3099 63.0602C21.3099 63.0602 21.3099 63.0602 21.3199 63.0602C21.9899 63.0602 22.6199 62.7202 22.9899 62.1602L27.5799 55.1902V67.0902C27.5599 67.6402 27.1099 68.0902 26.5499 68.0902Z" fill="#9292A1"/>
</svg>
